<mxfile host="app.diagrams.net" agent="Mozilla/5.0 (Windows NT 10.0; Win64; x64) AppleWebKit/537.36 (KHTML, like Gecko) Chrome/134.0.0.0 Safari/537.36" version="26.1.3">
  <diagram name="Page-1" id="d0wxkkR6qSLJX6IyKysE">
    <mxGraphModel dx="2736" dy="918" grid="1" gridSize="10" guides="1" tooltips="1" connect="1" arrows="1" fold="1" page="1" pageScale="1" pageWidth="827" pageHeight="1169" math="0" shadow="0">
      <root>
        <mxCell id="0" />
        <mxCell id="1" parent="0" />
        <mxCell id="XBh-O0KlTPi4nRXoJzy8-2" value="Inventroy Management System(IMS)" style="rounded=0;whiteSpace=wrap;html=1;" vertex="1" parent="1">
          <mxGeometry x="320" y="120" width="160" height="40" as="geometry" />
        </mxCell>
        <mxCell id="XBh-O0KlTPi4nRXoJzy8-3" value="Inventroy Management System(IMS)" style="rounded=0;whiteSpace=wrap;html=1;fillColor=#66FF66;" vertex="1" parent="1">
          <mxGeometry x="320" y="120" width="160" height="40" as="geometry" />
        </mxCell>
        <mxCell id="XBh-O0KlTPi4nRXoJzy8-4" value="" style="rounded=0;whiteSpace=wrap;html=1;" vertex="1" parent="1">
          <mxGeometry x="414" y="20" width="160" height="40" as="geometry" />
        </mxCell>
        <mxCell id="XBh-O0KlTPi4nRXoJzy8-5" value="Estimate Cost and required tools" style="rounded=0;whiteSpace=wrap;html=1;" vertex="1" parent="1">
          <mxGeometry x="-170" y="560" width="160" height="40" as="geometry" />
        </mxCell>
        <mxCell id="XBh-O0KlTPi4nRXoJzy8-6" value="Inventroy Management System(IMS)" style="rounded=0;whiteSpace=wrap;html=1;" vertex="1" parent="1">
          <mxGeometry x="1300" y="400" width="160" height="40" as="geometry" />
        </mxCell>
        <mxCell id="XBh-O0KlTPi4nRXoJzy8-7" value="Define goals and expected outcomes" style="rounded=0;whiteSpace=wrap;html=1;" vertex="1" parent="1">
          <mxGeometry x="-170" y="480" width="160" height="40" as="geometry" />
        </mxCell>
        <mxCell id="XBh-O0KlTPi4nRXoJzy8-8" value="Initiation" style="rounded=0;whiteSpace=wrap;html=1;" vertex="1" parent="1">
          <mxGeometry x="-240" y="240" width="160" height="40" as="geometry" />
        </mxCell>
        <mxCell id="XBh-O0KlTPi4nRXoJzy8-9" value="Execution" style="rounded=0;whiteSpace=wrap;html=1;" vertex="1" parent="1">
          <mxGeometry x="320" y="240" width="160" height="40" as="geometry" />
        </mxCell>
        <mxCell id="XBh-O0KlTPi4nRXoJzy8-10" value="Assign Project Team roles" style="rounded=0;whiteSpace=wrap;html=1;" vertex="1" parent="1">
          <mxGeometry x="-170" y="640" width="160" height="40" as="geometry" />
        </mxCell>
        <mxCell id="XBh-O0KlTPi4nRXoJzy8-11" value="Closure" style="rounded=0;whiteSpace=wrap;html=1;" vertex="1" parent="1">
          <mxGeometry x="880" y="240" width="160" height="40" as="geometry" />
        </mxCell>
        <mxCell id="XBh-O0KlTPi4nRXoJzy8-12" value="Establish risk control strategies" style="rounded=0;whiteSpace=wrap;html=1;" vertex="1" parent="1">
          <mxGeometry x="-170" y="720" width="160" height="40" as="geometry" />
        </mxCell>
        <mxCell id="XBh-O0KlTPi4nRXoJzy8-13" value="Control" style="rounded=0;whiteSpace=wrap;html=1;" vertex="1" parent="1">
          <mxGeometry x="600" y="240" width="160" height="40" as="geometry" />
        </mxCell>
        <mxCell id="XBh-O0KlTPi4nRXoJzy8-14" value="Define Project Objectives" style="rounded=0;whiteSpace=wrap;html=1;" vertex="1" parent="1">
          <mxGeometry x="-170" y="320" width="160" height="40" as="geometry" />
        </mxCell>
        <mxCell id="XBh-O0KlTPi4nRXoJzy8-15" value="Identify Key Stakeholders" style="rounded=0;whiteSpace=wrap;html=1;" vertex="1" parent="1">
          <mxGeometry x="-170" y="400" width="160" height="40" as="geometry" />
        </mxCell>
        <mxCell id="XBh-O0KlTPi4nRXoJzy8-16" value="Planning" style="rounded=0;whiteSpace=wrap;html=1;" vertex="1" parent="1">
          <mxGeometry x="40" y="240" width="160" height="40" as="geometry" />
        </mxCell>
        <mxCell id="XBh-O0KlTPi4nRXoJzy8-18" value="" style="endArrow=none;html=1;rounded=0;" edge="1" parent="1">
          <mxGeometry width="50" height="50" relative="1" as="geometry">
            <mxPoint x="-230" y="420" as="sourcePoint" />
            <mxPoint x="-170" y="420" as="targetPoint" />
          </mxGeometry>
        </mxCell>
        <mxCell id="XBh-O0KlTPi4nRXoJzy8-19" value="" style="endArrow=none;html=1;rounded=0;" edge="1" parent="1">
          <mxGeometry width="50" height="50" relative="1" as="geometry">
            <mxPoint x="-230" y="283" as="sourcePoint" />
            <mxPoint x="-230" y="761" as="targetPoint" />
          </mxGeometry>
        </mxCell>
        <mxCell id="XBh-O0KlTPi4nRXoJzy8-20" value="" style="endArrow=none;html=1;rounded=0;" edge="1" parent="1">
          <mxGeometry width="50" height="50" relative="1" as="geometry">
            <mxPoint x="-230" y="340" as="sourcePoint" />
            <mxPoint x="-170" y="340" as="targetPoint" />
          </mxGeometry>
        </mxCell>
        <mxCell id="XBh-O0KlTPi4nRXoJzy8-21" style="edgeStyle=orthogonalEdgeStyle;rounded=0;orthogonalLoop=1;jettySize=auto;html=1;exitX=0.5;exitY=1;exitDx=0;exitDy=0;" edge="1" parent="1" source="XBh-O0KlTPi4nRXoJzy8-16" target="XBh-O0KlTPi4nRXoJzy8-16">
          <mxGeometry relative="1" as="geometry" />
        </mxCell>
        <mxCell id="XBh-O0KlTPi4nRXoJzy8-24" value="" style="endArrow=none;html=1;rounded=0;" edge="1" parent="1">
          <mxGeometry width="50" height="50" relative="1" as="geometry">
            <mxPoint x="-230" y="660" as="sourcePoint" />
            <mxPoint x="-170" y="660" as="targetPoint" />
          </mxGeometry>
        </mxCell>
        <mxCell id="XBh-O0KlTPi4nRXoJzy8-25" value="" style="endArrow=none;html=1;rounded=0;" edge="1" parent="1">
          <mxGeometry width="50" height="50" relative="1" as="geometry">
            <mxPoint x="-230" y="740" as="sourcePoint" />
            <mxPoint x="-170" y="740" as="targetPoint" />
          </mxGeometry>
        </mxCell>
        <mxCell id="XBh-O0KlTPi4nRXoJzy8-26" value="" style="endArrow=none;html=1;rounded=0;" edge="1" parent="1">
          <mxGeometry width="50" height="50" relative="1" as="geometry">
            <mxPoint x="-230" y="583" as="sourcePoint" />
            <mxPoint x="-170" y="583" as="targetPoint" />
          </mxGeometry>
        </mxCell>
        <mxCell id="XBh-O0KlTPi4nRXoJzy8-27" value="" style="endArrow=none;html=1;rounded=0;" edge="1" parent="1">
          <mxGeometry width="50" height="50" relative="1" as="geometry">
            <mxPoint x="-230" y="500" as="sourcePoint" />
            <mxPoint x="-170" y="500" as="targetPoint" />
          </mxGeometry>
        </mxCell>
        <mxCell id="XBh-O0KlTPi4nRXoJzy8-28" value="Document business process" style="rounded=0;whiteSpace=wrap;html=1;" vertex="1" parent="1">
          <mxGeometry x="120" y="559" width="160" height="40" as="geometry" />
        </mxCell>
        <mxCell id="XBh-O0KlTPi4nRXoJzy8-29" value="Identify functional and non-functional requirements" style="rounded=0;whiteSpace=wrap;html=1;" vertex="1" parent="1">
          <mxGeometry x="120" y="479" width="160" height="40" as="geometry" />
        </mxCell>
        <mxCell id="XBh-O0KlTPi4nRXoJzy8-30" value="Design the system architecture" style="rounded=0;whiteSpace=wrap;html=1;" vertex="1" parent="1">
          <mxGeometry x="120" y="639" width="160" height="40" as="geometry" />
        </mxCell>
        <mxCell id="XBh-O0KlTPi4nRXoJzy8-31" value="Design database schema" style="rounded=0;whiteSpace=wrap;html=1;" vertex="1" parent="1">
          <mxGeometry x="120" y="719" width="160" height="40" as="geometry" />
        </mxCell>
        <mxCell id="XBh-O0KlTPi4nRXoJzy8-32" value="Gather requirement from client" style="rounded=0;whiteSpace=wrap;html=1;" vertex="1" parent="1">
          <mxGeometry x="120" y="319" width="160" height="40" as="geometry" />
        </mxCell>
        <mxCell id="XBh-O0KlTPi4nRXoJzy8-33" value="Conduct stakeholders interviews" style="rounded=0;whiteSpace=wrap;html=1;" vertex="1" parent="1">
          <mxGeometry x="120" y="399" width="160" height="40" as="geometry" />
        </mxCell>
        <mxCell id="XBh-O0KlTPi4nRXoJzy8-34" value="" style="endArrow=none;html=1;rounded=0;" edge="1" parent="1">
          <mxGeometry width="50" height="50" relative="1" as="geometry">
            <mxPoint x="60" y="419" as="sourcePoint" />
            <mxPoint x="120" y="419" as="targetPoint" />
          </mxGeometry>
        </mxCell>
        <mxCell id="XBh-O0KlTPi4nRXoJzy8-35" value="" style="endArrow=none;html=1;rounded=0;" edge="1" parent="1">
          <mxGeometry width="50" height="50" relative="1" as="geometry">
            <mxPoint x="60" y="282" as="sourcePoint" />
            <mxPoint x="60" y="760" as="targetPoint" />
          </mxGeometry>
        </mxCell>
        <mxCell id="XBh-O0KlTPi4nRXoJzy8-36" value="" style="endArrow=none;html=1;rounded=0;" edge="1" parent="1">
          <mxGeometry width="50" height="50" relative="1" as="geometry">
            <mxPoint x="60" y="339" as="sourcePoint" />
            <mxPoint x="120" y="339" as="targetPoint" />
          </mxGeometry>
        </mxCell>
        <mxCell id="XBh-O0KlTPi4nRXoJzy8-37" value="" style="endArrow=none;html=1;rounded=0;" edge="1" parent="1">
          <mxGeometry width="50" height="50" relative="1" as="geometry">
            <mxPoint x="60" y="659" as="sourcePoint" />
            <mxPoint x="120" y="659" as="targetPoint" />
          </mxGeometry>
        </mxCell>
        <mxCell id="XBh-O0KlTPi4nRXoJzy8-38" value="" style="endArrow=none;html=1;rounded=0;" edge="1" parent="1">
          <mxGeometry width="50" height="50" relative="1" as="geometry">
            <mxPoint x="60" y="739" as="sourcePoint" />
            <mxPoint x="120" y="739" as="targetPoint" />
          </mxGeometry>
        </mxCell>
        <mxCell id="XBh-O0KlTPi4nRXoJzy8-39" value="" style="endArrow=none;html=1;rounded=0;" edge="1" parent="1">
          <mxGeometry width="50" height="50" relative="1" as="geometry">
            <mxPoint x="60" y="582" as="sourcePoint" />
            <mxPoint x="120" y="582" as="targetPoint" />
          </mxGeometry>
        </mxCell>
        <mxCell id="XBh-O0KlTPi4nRXoJzy8-40" value="" style="endArrow=none;html=1;rounded=0;" edge="1" parent="1">
          <mxGeometry width="50" height="50" relative="1" as="geometry">
            <mxPoint x="60" y="499" as="sourcePoint" />
            <mxPoint x="120" y="499" as="targetPoint" />
          </mxGeometry>
        </mxCell>
        <mxCell id="XBh-O0KlTPi4nRXoJzy8-41" value="Form team and allocate the task" style="rounded=0;whiteSpace=wrap;html=1;" vertex="1" parent="1">
          <mxGeometry x="120" y="1017" width="160" height="40" as="geometry" />
        </mxCell>
        <mxCell id="XBh-O0KlTPi4nRXoJzy8-42" value="Set Schedule and Milestone" style="rounded=0;whiteSpace=wrap;html=1;" vertex="1" parent="1">
          <mxGeometry x="120" y="937" width="160" height="40" as="geometry" />
        </mxCell>
        <mxCell id="XBh-O0KlTPi4nRXoJzy8-45" value="Design UI/UX prototype" style="rounded=0;whiteSpace=wrap;html=1;" vertex="1" parent="1">
          <mxGeometry x="120" y="777" width="160" height="40" as="geometry" />
        </mxCell>
        <mxCell id="XBh-O0KlTPi4nRXoJzy8-46" value="Develop Project Timeline" style="rounded=0;whiteSpace=wrap;html=1;" vertex="1" parent="1">
          <mxGeometry x="120" y="857" width="160" height="40" as="geometry" />
        </mxCell>
        <mxCell id="XBh-O0KlTPi4nRXoJzy8-47" value="" style="endArrow=none;html=1;rounded=0;" edge="1" parent="1">
          <mxGeometry width="50" height="50" relative="1" as="geometry">
            <mxPoint x="60" y="877" as="sourcePoint" />
            <mxPoint x="120" y="877" as="targetPoint" />
          </mxGeometry>
        </mxCell>
        <mxCell id="XBh-O0KlTPi4nRXoJzy8-48" value="" style="endArrow=none;html=1;rounded=0;" edge="1" parent="1">
          <mxGeometry width="50" height="50" relative="1" as="geometry">
            <mxPoint x="60" y="740" as="sourcePoint" />
            <mxPoint x="60" y="1040" as="targetPoint" />
          </mxGeometry>
        </mxCell>
        <mxCell id="XBh-O0KlTPi4nRXoJzy8-49" value="" style="endArrow=none;html=1;rounded=0;" edge="1" parent="1">
          <mxGeometry width="50" height="50" relative="1" as="geometry">
            <mxPoint x="60" y="797" as="sourcePoint" />
            <mxPoint x="120" y="797" as="targetPoint" />
          </mxGeometry>
        </mxCell>
        <mxCell id="XBh-O0KlTPi4nRXoJzy8-52" value="" style="endArrow=none;html=1;rounded=0;" edge="1" parent="1">
          <mxGeometry width="50" height="50" relative="1" as="geometry">
            <mxPoint x="60" y="1040" as="sourcePoint" />
            <mxPoint x="120" y="1040" as="targetPoint" />
          </mxGeometry>
        </mxCell>
        <mxCell id="XBh-O0KlTPi4nRXoJzy8-53" value="" style="endArrow=none;html=1;rounded=0;" edge="1" parent="1">
          <mxGeometry width="50" height="50" relative="1" as="geometry">
            <mxPoint x="60" y="957" as="sourcePoint" />
            <mxPoint x="120" y="957" as="targetPoint" />
          </mxGeometry>
        </mxCell>
        <mxCell id="XBh-O0KlTPi4nRXoJzy8-75" value="Develop initial database schema and API structure&amp;nbsp;" style="rounded=0;whiteSpace=wrap;html=1;" vertex="1" parent="1">
          <mxGeometry x="390" y="557" width="160" height="40" as="geometry" />
        </mxCell>
        <mxCell id="XBh-O0KlTPi4nRXoJzy8-76" value="Implement User Authentication" style="rounded=0;whiteSpace=wrap;html=1;" vertex="1" parent="1">
          <mxGeometry x="390" y="477" width="160" height="40" as="geometry" />
        </mxCell>
        <mxCell id="XBh-O0KlTPi4nRXoJzy8-77" value="Performing unit testing for authentication model" style="rounded=0;whiteSpace=wrap;html=1;" vertex="1" parent="1">
          <mxGeometry x="390" y="637" width="160" height="40" as="geometry" />
        </mxCell>
        <mxCell id="XBh-O0KlTPi4nRXoJzy8-78" value="Design database schema" style="rounded=0;whiteSpace=wrap;html=1;" vertex="1" parent="1">
          <mxGeometry x="390" y="717" width="160" height="40" as="geometry" />
        </mxCell>
        <mxCell id="XBh-O0KlTPi4nRXoJzy8-79" value="Iterative Model&amp;nbsp;" style="rounded=0;whiteSpace=wrap;html=1;" vertex="1" parent="1">
          <mxGeometry x="360" y="319" width="160" height="40" as="geometry" />
        </mxCell>
        <mxCell id="XBh-O0KlTPi4nRXoJzy8-80" value="Set project repository and develop environment&amp;nbsp;" style="rounded=0;whiteSpace=wrap;html=1;" vertex="1" parent="1">
          <mxGeometry x="400" y="397" width="160" height="40" as="geometry" />
        </mxCell>
        <mxCell id="XBh-O0KlTPi4nRXoJzy8-81" value="" style="endArrow=none;html=1;rounded=0;entryX=0;entryY=0.5;entryDx=0;entryDy=0;" edge="1" parent="1" target="XBh-O0KlTPi4nRXoJzy8-80">
          <mxGeometry width="50" height="50" relative="1" as="geometry">
            <mxPoint x="380" y="360" as="sourcePoint" />
            <mxPoint x="380" y="470" as="targetPoint" />
            <Array as="points">
              <mxPoint x="380" y="420" />
            </Array>
          </mxGeometry>
        </mxCell>
        <mxCell id="XBh-O0KlTPi4nRXoJzy8-82" value="" style="endArrow=none;html=1;rounded=0;" edge="1" parent="1">
          <mxGeometry width="50" height="50" relative="1" as="geometry">
            <mxPoint x="330" y="282" as="sourcePoint" />
            <mxPoint x="330" y="760" as="targetPoint" />
          </mxGeometry>
        </mxCell>
        <mxCell id="XBh-O0KlTPi4nRXoJzy8-83" value="" style="endArrow=none;html=1;rounded=0;" edge="1" parent="1">
          <mxGeometry width="50" height="50" relative="1" as="geometry">
            <mxPoint x="330" y="337" as="sourcePoint" />
            <mxPoint x="360" y="337" as="targetPoint" />
          </mxGeometry>
        </mxCell>
        <mxCell id="XBh-O0KlTPi4nRXoJzy8-84" value="" style="endArrow=none;html=1;rounded=0;" edge="1" parent="1">
          <mxGeometry width="50" height="50" relative="1" as="geometry">
            <mxPoint x="330" y="657" as="sourcePoint" />
            <mxPoint x="390" y="657" as="targetPoint" />
          </mxGeometry>
        </mxCell>
        <mxCell id="XBh-O0KlTPi4nRXoJzy8-85" value="" style="endArrow=none;html=1;rounded=0;" edge="1" parent="1">
          <mxGeometry width="50" height="50" relative="1" as="geometry">
            <mxPoint x="330" y="737" as="sourcePoint" />
            <mxPoint x="390" y="737" as="targetPoint" />
          </mxGeometry>
        </mxCell>
        <mxCell id="XBh-O0KlTPi4nRXoJzy8-86" value="" style="endArrow=none;html=1;rounded=0;" edge="1" parent="1">
          <mxGeometry width="50" height="50" relative="1" as="geometry">
            <mxPoint x="330" y="580" as="sourcePoint" />
            <mxPoint x="390" y="580" as="targetPoint" />
          </mxGeometry>
        </mxCell>
        <mxCell id="XBh-O0KlTPi4nRXoJzy8-87" value="" style="endArrow=none;html=1;rounded=0;" edge="1" parent="1">
          <mxGeometry width="50" height="50" relative="1" as="geometry">
            <mxPoint x="330" y="497" as="sourcePoint" />
            <mxPoint x="390" y="497" as="targetPoint" />
          </mxGeometry>
        </mxCell>
        <mxCell id="XBh-O0KlTPi4nRXoJzy8-88" value="Form team and allocate the task" style="rounded=0;whiteSpace=wrap;html=1;" vertex="1" parent="1">
          <mxGeometry x="390" y="1015" width="160" height="40" as="geometry" />
        </mxCell>
        <mxCell id="XBh-O0KlTPi4nRXoJzy8-89" value="Set Schedule and Milestone" style="rounded=0;whiteSpace=wrap;html=1;" vertex="1" parent="1">
          <mxGeometry x="390" y="935" width="160" height="40" as="geometry" />
        </mxCell>
        <mxCell id="XBh-O0KlTPi4nRXoJzy8-90" value="Design UI/UX prototype" style="rounded=0;whiteSpace=wrap;html=1;" vertex="1" parent="1">
          <mxGeometry x="390" y="775" width="160" height="40" as="geometry" />
        </mxCell>
        <mxCell id="XBh-O0KlTPi4nRXoJzy8-91" value="Develop Project Timeline" style="rounded=0;whiteSpace=wrap;html=1;" vertex="1" parent="1">
          <mxGeometry x="390" y="855" width="160" height="40" as="geometry" />
        </mxCell>
        <mxCell id="XBh-O0KlTPi4nRXoJzy8-92" value="" style="endArrow=none;html=1;rounded=0;" edge="1" parent="1">
          <mxGeometry width="50" height="50" relative="1" as="geometry">
            <mxPoint x="330" y="875" as="sourcePoint" />
            <mxPoint x="390" y="875" as="targetPoint" />
          </mxGeometry>
        </mxCell>
        <mxCell id="XBh-O0KlTPi4nRXoJzy8-93" value="" style="endArrow=none;html=1;rounded=0;" edge="1" parent="1">
          <mxGeometry width="50" height="50" relative="1" as="geometry">
            <mxPoint x="330" y="738" as="sourcePoint" />
            <mxPoint x="330" y="1038" as="targetPoint" />
          </mxGeometry>
        </mxCell>
        <mxCell id="XBh-O0KlTPi4nRXoJzy8-94" value="" style="endArrow=none;html=1;rounded=0;" edge="1" parent="1">
          <mxGeometry width="50" height="50" relative="1" as="geometry">
            <mxPoint x="330" y="795" as="sourcePoint" />
            <mxPoint x="390" y="795" as="targetPoint" />
          </mxGeometry>
        </mxCell>
        <mxCell id="XBh-O0KlTPi4nRXoJzy8-95" value="" style="endArrow=none;html=1;rounded=0;" edge="1" parent="1">
          <mxGeometry width="50" height="50" relative="1" as="geometry">
            <mxPoint x="330" y="1038" as="sourcePoint" />
            <mxPoint x="390" y="1038" as="targetPoint" />
          </mxGeometry>
        </mxCell>
        <mxCell id="XBh-O0KlTPi4nRXoJzy8-96" value="" style="endArrow=none;html=1;rounded=0;" edge="1" parent="1">
          <mxGeometry width="50" height="50" relative="1" as="geometry">
            <mxPoint x="330" y="955" as="sourcePoint" />
            <mxPoint x="390" y="955" as="targetPoint" />
          </mxGeometry>
        </mxCell>
        <mxCell id="XBh-O0KlTPi4nRXoJzy8-118" value="Identify potential issue" style="rounded=0;whiteSpace=wrap;html=1;" vertex="1" parent="1">
          <mxGeometry x="670" y="557" width="160" height="40" as="geometry" />
        </mxCell>
        <mxCell id="XBh-O0KlTPi4nRXoJzy8-119" value="Conduct user feedback session" style="rounded=0;whiteSpace=wrap;html=1;" vertex="1" parent="1">
          <mxGeometry x="670" y="477" width="160" height="40" as="geometry" />
        </mxCell>
        <mxCell id="XBh-O0KlTPi4nRXoJzy8-120" value="Develop mitigation strategies" style="rounded=0;whiteSpace=wrap;html=1;" vertex="1" parent="1">
          <mxGeometry x="670" y="637" width="160" height="40" as="geometry" />
        </mxCell>
        <mxCell id="XBh-O0KlTPi4nRXoJzy8-121" value="Conduct testing&amp;nbsp;" style="rounded=0;whiteSpace=wrap;html=1;" vertex="1" parent="1">
          <mxGeometry x="670" y="717" width="160" height="40" as="geometry" />
        </mxCell>
        <mxCell id="XBh-O0KlTPi4nRXoJzy8-122" value="Track Project Progress" style="rounded=0;whiteSpace=wrap;html=1;" vertex="1" parent="1">
          <mxGeometry x="670" y="317" width="160" height="40" as="geometry" />
        </mxCell>
        <mxCell id="XBh-O0KlTPi4nRXoJzy8-123" value="Review System Performace" style="rounded=0;whiteSpace=wrap;html=1;" vertex="1" parent="1">
          <mxGeometry x="670" y="397" width="160" height="40" as="geometry" />
        </mxCell>
        <mxCell id="XBh-O0KlTPi4nRXoJzy8-124" value="" style="endArrow=none;html=1;rounded=0;" edge="1" parent="1">
          <mxGeometry width="50" height="50" relative="1" as="geometry">
            <mxPoint x="610" y="417" as="sourcePoint" />
            <mxPoint x="670" y="417" as="targetPoint" />
          </mxGeometry>
        </mxCell>
        <mxCell id="XBh-O0KlTPi4nRXoJzy8-125" value="" style="endArrow=none;html=1;rounded=0;" edge="1" parent="1">
          <mxGeometry width="50" height="50" relative="1" as="geometry">
            <mxPoint x="610" y="280" as="sourcePoint" />
            <mxPoint x="610" y="758" as="targetPoint" />
          </mxGeometry>
        </mxCell>
        <mxCell id="XBh-O0KlTPi4nRXoJzy8-126" value="" style="endArrow=none;html=1;rounded=0;" edge="1" parent="1">
          <mxGeometry width="50" height="50" relative="1" as="geometry">
            <mxPoint x="610" y="337" as="sourcePoint" />
            <mxPoint x="670" y="337" as="targetPoint" />
          </mxGeometry>
        </mxCell>
        <mxCell id="XBh-O0KlTPi4nRXoJzy8-127" value="" style="endArrow=none;html=1;rounded=0;" edge="1" parent="1">
          <mxGeometry width="50" height="50" relative="1" as="geometry">
            <mxPoint x="610" y="657" as="sourcePoint" />
            <mxPoint x="670" y="657" as="targetPoint" />
          </mxGeometry>
        </mxCell>
        <mxCell id="XBh-O0KlTPi4nRXoJzy8-128" value="" style="endArrow=none;html=1;rounded=0;" edge="1" parent="1">
          <mxGeometry width="50" height="50" relative="1" as="geometry">
            <mxPoint x="610" y="737" as="sourcePoint" />
            <mxPoint x="670" y="737" as="targetPoint" />
          </mxGeometry>
        </mxCell>
        <mxCell id="XBh-O0KlTPi4nRXoJzy8-129" value="" style="endArrow=none;html=1;rounded=0;" edge="1" parent="1">
          <mxGeometry width="50" height="50" relative="1" as="geometry">
            <mxPoint x="610" y="580" as="sourcePoint" />
            <mxPoint x="670" y="580" as="targetPoint" />
          </mxGeometry>
        </mxCell>
        <mxCell id="XBh-O0KlTPi4nRXoJzy8-130" value="" style="endArrow=none;html=1;rounded=0;" edge="1" parent="1">
          <mxGeometry width="50" height="50" relative="1" as="geometry">
            <mxPoint x="610" y="497" as="sourcePoint" />
            <mxPoint x="670" y="497" as="targetPoint" />
          </mxGeometry>
        </mxCell>
        <mxCell id="XBh-O0KlTPi4nRXoJzy8-133" value="Fix bugs" style="rounded=0;whiteSpace=wrap;html=1;" vertex="1" parent="1">
          <mxGeometry x="670" y="775" width="160" height="40" as="geometry" />
        </mxCell>
        <mxCell id="XBh-O0KlTPi4nRXoJzy8-134" value="Review Code and documentation" style="rounded=0;whiteSpace=wrap;html=1;" vertex="1" parent="1">
          <mxGeometry x="670" y="855" width="160" height="40" as="geometry" />
        </mxCell>
        <mxCell id="XBh-O0KlTPi4nRXoJzy8-135" value="" style="endArrow=none;html=1;rounded=0;" edge="1" parent="1">
          <mxGeometry width="50" height="50" relative="1" as="geometry">
            <mxPoint x="610" y="875" as="sourcePoint" />
            <mxPoint x="670" y="875" as="targetPoint" />
          </mxGeometry>
        </mxCell>
        <mxCell id="XBh-O0KlTPi4nRXoJzy8-136" value="" style="endArrow=none;html=1;rounded=0;" edge="1" parent="1">
          <mxGeometry width="50" height="50" relative="1" as="geometry">
            <mxPoint x="610" y="738" as="sourcePoint" />
            <mxPoint x="610" y="880" as="targetPoint" />
          </mxGeometry>
        </mxCell>
        <mxCell id="XBh-O0KlTPi4nRXoJzy8-137" value="" style="endArrow=none;html=1;rounded=0;" edge="1" parent="1">
          <mxGeometry width="50" height="50" relative="1" as="geometry">
            <mxPoint x="610" y="795" as="sourcePoint" />
            <mxPoint x="670" y="795" as="targetPoint" />
          </mxGeometry>
        </mxCell>
        <mxCell id="XBh-O0KlTPi4nRXoJzy8-191" value="Transfer system ownership" style="rounded=0;whiteSpace=wrap;html=1;" vertex="1" parent="1">
          <mxGeometry x="950" y="557" width="160" height="40" as="geometry" />
        </mxCell>
        <mxCell id="XBh-O0KlTPi4nRXoJzy8-192" value="conduct final stakeholder review" style="rounded=0;whiteSpace=wrap;html=1;" vertex="1" parent="1">
          <mxGeometry x="950" y="477" width="160" height="40" as="geometry" />
        </mxCell>
        <mxCell id="XBh-O0KlTPi4nRXoJzy8-193" value="Collect feedback from user" style="rounded=0;whiteSpace=wrap;html=1;" vertex="1" parent="1">
          <mxGeometry x="950" y="637" width="160" height="40" as="geometry" />
        </mxCell>
        <mxCell id="XBh-O0KlTPi4nRXoJzy8-194" value="Review and finalize the project" style="rounded=0;whiteSpace=wrap;html=1;" vertex="1" parent="1">
          <mxGeometry x="950" y="717" width="160" height="40" as="geometry" />
        </mxCell>
        <mxCell id="XBh-O0KlTPi4nRXoJzy8-195" value="Deploy the system to the production" style="rounded=0;whiteSpace=wrap;html=1;" vertex="1" parent="1">
          <mxGeometry x="950" y="317" width="160" height="40" as="geometry" />
        </mxCell>
        <mxCell id="XBh-O0KlTPi4nRXoJzy8-196" value="Provide user training about using the system" style="rounded=0;whiteSpace=wrap;html=1;" vertex="1" parent="1">
          <mxGeometry x="950" y="397" width="160" height="40" as="geometry" />
        </mxCell>
        <mxCell id="XBh-O0KlTPi4nRXoJzy8-197" value="" style="endArrow=none;html=1;rounded=0;" edge="1" parent="1">
          <mxGeometry width="50" height="50" relative="1" as="geometry">
            <mxPoint x="890" y="417" as="sourcePoint" />
            <mxPoint x="950" y="417" as="targetPoint" />
          </mxGeometry>
        </mxCell>
        <mxCell id="XBh-O0KlTPi4nRXoJzy8-198" value="" style="endArrow=none;html=1;rounded=0;" edge="1" parent="1">
          <mxGeometry width="50" height="50" relative="1" as="geometry">
            <mxPoint x="890" y="280" as="sourcePoint" />
            <mxPoint x="890" y="740" as="targetPoint" />
          </mxGeometry>
        </mxCell>
        <mxCell id="XBh-O0KlTPi4nRXoJzy8-199" value="" style="endArrow=none;html=1;rounded=0;" edge="1" parent="1">
          <mxGeometry width="50" height="50" relative="1" as="geometry">
            <mxPoint x="890" y="337" as="sourcePoint" />
            <mxPoint x="950" y="337" as="targetPoint" />
          </mxGeometry>
        </mxCell>
        <mxCell id="XBh-O0KlTPi4nRXoJzy8-200" value="" style="endArrow=none;html=1;rounded=0;" edge="1" parent="1">
          <mxGeometry width="50" height="50" relative="1" as="geometry">
            <mxPoint x="890" y="657" as="sourcePoint" />
            <mxPoint x="950" y="657" as="targetPoint" />
          </mxGeometry>
        </mxCell>
        <mxCell id="XBh-O0KlTPi4nRXoJzy8-201" value="" style="endArrow=none;html=1;rounded=0;" edge="1" parent="1">
          <mxGeometry width="50" height="50" relative="1" as="geometry">
            <mxPoint x="890" y="737" as="sourcePoint" />
            <mxPoint x="950" y="737" as="targetPoint" />
          </mxGeometry>
        </mxCell>
        <mxCell id="XBh-O0KlTPi4nRXoJzy8-202" value="" style="endArrow=none;html=1;rounded=0;" edge="1" parent="1">
          <mxGeometry width="50" height="50" relative="1" as="geometry">
            <mxPoint x="890" y="580" as="sourcePoint" />
            <mxPoint x="950" y="580" as="targetPoint" />
          </mxGeometry>
        </mxCell>
        <mxCell id="XBh-O0KlTPi4nRXoJzy8-203" value="" style="endArrow=none;html=1;rounded=0;" edge="1" parent="1">
          <mxGeometry width="50" height="50" relative="1" as="geometry">
            <mxPoint x="890" y="497" as="sourcePoint" />
            <mxPoint x="950" y="497" as="targetPoint" />
          </mxGeometry>
        </mxCell>
        <mxCell id="XBh-O0KlTPi4nRXoJzy8-209" value="" style="endArrow=none;html=1;rounded=0;" edge="1" parent="1">
          <mxGeometry width="50" height="50" relative="1" as="geometry">
            <mxPoint x="890" y="738" as="sourcePoint" />
            <mxPoint x="890" y="740" as="targetPoint" />
          </mxGeometry>
        </mxCell>
        <mxCell id="XBh-O0KlTPi4nRXoJzy8-213" value="" style="endArrow=none;html=1;rounded=0;exitX=0.5;exitY=1;exitDx=0;exitDy=0;entryX=0.5;entryY=0;entryDx=0;entryDy=0;" edge="1" parent="1" source="XBh-O0KlTPi4nRXoJzy8-3" target="XBh-O0KlTPi4nRXoJzy8-9">
          <mxGeometry width="50" height="50" relative="1" as="geometry">
            <mxPoint x="450" y="520" as="sourcePoint" />
            <mxPoint x="500" y="470" as="targetPoint" />
          </mxGeometry>
        </mxCell>
        <mxCell id="XBh-O0KlTPi4nRXoJzy8-214" value="" style="endArrow=none;html=1;rounded=0;" edge="1" parent="1">
          <mxGeometry width="50" height="50" relative="1" as="geometry">
            <mxPoint x="-160" y="200" as="sourcePoint" />
            <mxPoint x="960" y="200" as="targetPoint" />
          </mxGeometry>
        </mxCell>
        <mxCell id="XBh-O0KlTPi4nRXoJzy8-215" value="" style="endArrow=none;html=1;rounded=0;entryX=0.5;entryY=0;entryDx=0;entryDy=0;" edge="1" parent="1" target="XBh-O0KlTPi4nRXoJzy8-8">
          <mxGeometry width="50" height="50" relative="1" as="geometry">
            <mxPoint x="-160" y="200" as="sourcePoint" />
            <mxPoint x="500" y="470" as="targetPoint" />
          </mxGeometry>
        </mxCell>
        <mxCell id="XBh-O0KlTPi4nRXoJzy8-216" value="" style="endArrow=none;html=1;rounded=0;entryX=0.5;entryY=0;entryDx=0;entryDy=0;" edge="1" parent="1" target="XBh-O0KlTPi4nRXoJzy8-11">
          <mxGeometry width="50" height="50" relative="1" as="geometry">
            <mxPoint x="960" y="200" as="sourcePoint" />
            <mxPoint x="-150" y="250" as="targetPoint" />
          </mxGeometry>
        </mxCell>
        <mxCell id="XBh-O0KlTPi4nRXoJzy8-217" value="" style="endArrow=none;html=1;rounded=0;entryX=0.5;entryY=0;entryDx=0;entryDy=0;" edge="1" parent="1">
          <mxGeometry width="50" height="50" relative="1" as="geometry">
            <mxPoint x="679" y="200" as="sourcePoint" />
            <mxPoint x="679" y="240" as="targetPoint" />
          </mxGeometry>
        </mxCell>
        <mxCell id="XBh-O0KlTPi4nRXoJzy8-218" value="" style="endArrow=none;html=1;rounded=0;entryX=0.5;entryY=0;entryDx=0;entryDy=0;" edge="1" parent="1">
          <mxGeometry width="50" height="50" relative="1" as="geometry">
            <mxPoint x="119" y="200" as="sourcePoint" />
            <mxPoint x="119" y="240" as="targetPoint" />
          </mxGeometry>
        </mxCell>
      </root>
    </mxGraphModel>
  </diagram>
</mxfile>
